{
    "asset" : {
        "generator" : "Khronos glTF Blender I/O v0.9.36",
        "version" : "2.0"
    },
    "scene" : 0,
    "scenes" : [
        {
            "name" : "Scene",
            "nodes" : [
                0,
                1
            ]
        }
    ],
    "nodes" : [
        {
            "mesh" : 0,
            "name" : "Cube.005",
            "scale" : [
                0.4727623462677002,
                0.4727623462677002,
                0.4727623462677002
            ]
        },
        {
            "mesh" : 1,
            "name" : "Cube.001",
            "rotation" : [
                0,
                0,
                -0.07297259569168091,
                0.9973339438438416
            ],
            "scale" : [
                0.4727623462677002,
                0.4727623462677002,
                0.4727623462677002
            ],
            "translation" : [
                -0.792446494102478,
                1.482438087463379,
                3.161664790241048e-05
            ]
        }
    ],
    "materials" : [
        {
            "doubleSided" : true,
            "name" : "Material.001",
            "pbrMetallicRoughness" : {
                "baseColorTexture" : {
                    "index" : 0,
                    "texCoord" : 0
                },
                "metallicFactor" : 0,
                "metallicRoughnessTexture" : {
                    "index" : 1,
                    "texCoord" : 0
                }
            }
        },
        {
            "doubleSided" : true,
            "name" : "Material.002",
            "pbrMetallicRoughness" : {
                "baseColorTexture" : {
                    "index" : 2,
                    "texCoord" : 0
                },
                "metallicFactor" : 0,
                "roughnessFactor" : 0.5
            }
        }
    ],
    "meshes" : [
        {
            "name" : "Cube.005",
            "primitives" : [
                {
                    "attributes" : {
                        "POSITION" : 0,
                        "NORMAL" : 1,
                        "TEXCOORD_0" : 2
                    },
                    "indices" : 3,
                    "material" : 0
                }
            ]
        },
        {
            "name" : "Cube.011",
            "primitives" : [
                {
                    "attributes" : {
                        "POSITION" : 4,
                        "NORMAL" : 5,
                        "TEXCOORD_0" : 6
                    },
                    "indices" : 7,
                    "material" : 1
                }
            ]
        }
    ],
    "textures" : [
        {
            "source" : 0
        },
        {
            "source" : 1
        },
        {
            "source" : 2
        }
    ],
    "images" : [
        {
            "bufferView" : 4,
            "mimeType" : "image/png",
            "name" : "Material"
        },
        {
            "bufferView" : 5,
            "mimeType" : "image/png",
            "name" : "Material"
        },
        {
            "bufferView" : 10,
            "mimeType" : "image/png",
            "name" : "Material"
        }
    ],
    "accessors" : [
        {
            "bufferView" : 0,
            "componentType" : 5126,
            "count" : 2658,
            "max" : [
                2.868967056274414,
                3.3631789684295654,
                1.812664270401001
            ],
            "min" : [
                -2.649386405944824,
                0.0008909702301025391,
                -1.812664270401001
            ],
            "type" : "VEC3"
        },
        {
            "bufferView" : 1,
            "componentType" : 5126,
            "count" : 2658,
            "type" : "VEC3"
        },
        {
            "bufferView" : 2,
            "componentType" : 5126,
            "count" : 2658,
            "type" : "VEC2"
        },
        {
            "bufferView" : 3,
            "componentType" : 5123,
            "count" : 6648,
            "type" : "SCALAR"
        },
        {
            "bufferView" : 6,
            "componentType" : 5126,
            "count" : 1203,
            "max" : [
                5.1400370597839355,
                1.0712394714355469,
                1.361502766609192
            ],
            "min" : [
                -5.523679733276367,
                -1.020573377609253,
                -1.4167646169662476
            ],
            "type" : "VEC3"
        },
        {
            "bufferView" : 7,
            "componentType" : 5126,
            "count" : 1203,
            "type" : "VEC3"
        },
        {
            "bufferView" : 8,
            "componentType" : 5126,
            "count" : 1203,
            "type" : "VEC2"
        },
        {
            "bufferView" : 9,
            "componentType" : 5123,
            "count" : 5874,
            "type" : "SCALAR"
        }
    ],
    "bufferViews" : [
        {
            "buffer" : 0,
            "byteLength" : 31896,
            "byteOffset" : 0
        },
        {
            "buffer" : 0,
            "byteLength" : 31896,
            "byteOffset" : 31896
        },
        {
            "buffer" : 0,
            "byteLength" : 21264,
            "byteOffset" : 63792
        },
        {
            "buffer" : 0,
            "byteLength" : 13296,
            "byteOffset" : 85056
        },
        {
            "buffer" : 0,
            "byteLength" : 301611,
            "byteOffset" : 98352
        },
        {
            "buffer" : 0,
            "byteLength" : 51103,
            "byteOffset" : 399964
        },
        {
            "buffer" : 0,
            "byteLength" : 14436,
            "byteOffset" : 451068
        },
        {
            "buffer" : 0,
            "byteLength" : 14436,
            "byteOffset" : 465504
        },
        {
            "buffer" : 0,
            "byteLength" : 9624,
            "byteOffset" : 479940
        },
        {
            "buffer" : 0,
            "byteLength" : 11748,
            "byteOffset" : 489564
        },
        {
            "buffer" : 0,
            "byteLength" : 20568,
            "byteOffset" : 501312
        }
    ],
    "buffers" : [
        {
            "byteLength" : 521880,
            "uri" : "data:application/octet-stream;base64,"
        }
    ]
}
