{
    "asset" : {
        "generator" : "Khronos glTF Blender I/O v0.9.36",
        "version" : "2.0"
    },
    "scene" : 0,
    "scenes" : [
        {
            "name" : "Scene",
            "nodes" : [
                0
            ]
        }
    ],
    "nodes" : [
        {
            "mesh" : 0,
            "name" : "Plane"
        }
    ],
    "materials" : [
        {
            "doubleSided" : true,
            "name" : "Material.006",
            "pbrMetallicRoughness" : {
                "baseColorTexture" : {
                    "index" : 0,
                    "texCoord" : 0
                },
                "metallicFactor" : 0,
                "metallicRoughnessTexture" : {
                    "index" : 1,
                    "texCoord" : 0
                }
            }
        },
        {
            "doubleSided" : true,
            "name" : "Material",
            "pbrMetallicRoughness" : {
                "baseColorTexture" : {
                    "index" : 2,
                    "texCoord" : 0
                },
                "metallicFactor" : 0,
                "roughnessFactor" : 0.5
            }
        },
        {
            "doubleSided" : true,
            "name" : "Material.002",
            "pbrMetallicRoughness" : {
                "baseColorFactor" : [
                    0.8000000715255737,
                    0.47320717573165894,
                    0.18454550206661224,
                    1
                ],
                "metallicFactor" : 0,
                "roughnessFactor" : 0.5
            }
        }
    ],
    "meshes" : [
        {
            "name" : "Plane.003",
            "primitives" : [
                {
                    "attributes" : {
                        "POSITION" : 0,
                        "NORMAL" : 1,
                        "TEXCOORD_0" : 2
                    },
                    "indices" : 3,
                    "material" : 0
                },
                {
                    "attributes" : {
                        "POSITION" : 4,
                        "NORMAL" : 5,
                        "TEXCOORD_0" : 6
                    },
                    "indices" : 7,
                    "material" : 1
                },
                {
                    "attributes" : {
                        "POSITION" : 8,
                        "NORMAL" : 9,
                        "TEXCOORD_0" : 10
                    },
                    "indices" : 11,
                    "material" : 2
                }
            ]
        }
    ],
    "textures" : [
        {
            "source" : 0
        },
        {
            "source" : 1
        },
        {
            "source" : 2
        }
    ],
    "images" : [
        {
            "bufferView" : 4,
            "mimeType" : "image/png",
            "name" : "GroundTexture"
        },
        {
            "bufferView" : 5,
            "mimeType" : "image/png",
            "name" : "Material.006 Roughness"
        },
        {
            "bufferView" : 10,
            "mimeType" : "image/png",
            "name" : "Material Base Color"
        }
    ],
    "accessors" : [
        {
            "bufferView" : 0,
            "componentType" : 5126,
            "count" : 4225,
            "max" : [
                100.0353775024414,
                17.402925491333008,
                100.0359878540039
            ],
            "min" : [
                -100.0367202758789,
                -26.102630615234375,
                -100.03663635253906
            ],
            "type" : "VEC3"
        },
        {
            "bufferView" : 1,
            "componentType" : 5126,
            "count" : 4225,
            "type" : "VEC3"
        },
        {
            "bufferView" : 2,
            "componentType" : 5126,
            "count" : 4225,
            "type" : "VEC2"
        },
        {
            "bufferView" : 3,
            "componentType" : 5123,
            "count" : 24576,
            "type" : "SCALAR"
        },
        {
            "bufferView" : 6,
            "componentType" : 5126,
            "count" : 95,
            "max" : [
                54.833648681640625,
                -0.42840576171875,
                32.27970886230469
            ],
            "min" : [
                -95.32441711425781,
                -20.88475227355957,
                -18.52233123779297
            ],
            "type" : "VEC3"
        },
        {
            "bufferView" : 7,
            "componentType" : 5126,
            "count" : 95,
            "type" : "VEC3"
        },
        {
            "bufferView" : 8,
            "componentType" : 5126,
            "count" : 95,
            "type" : "VEC2"
        },
        {
            "bufferView" : 9,
            "componentType" : 5123,
            "count" : 384,
            "type" : "SCALAR"
        },
        {
            "bufferView" : 11,
            "componentType" : 5126,
            "count" : 22218,
            "max" : [
                46.10908508300781,
                12.344002723693848,
                20.012218475341797
            ],
            "min" : [
                -74.75759887695312,
                -9.463908195495605,
                -20.140064239501953
            ],
            "type" : "VEC3"
        },
        {
            "bufferView" : 12,
            "componentType" : 5126,
            "count" : 22218,
            "type" : "VEC3"
        },
        {
            "bufferView" : 13,
            "componentType" : 5126,
            "count" : 22218,
            "type" : "VEC2"
        },
        {
            "bufferView" : 14,
            "componentType" : 5123,
            "count" : 22590,
            "type" : "SCALAR"
        }
    ],
    "bufferViews" : [
        {
            "buffer" : 0,
            "byteLength" : 50700,
            "byteOffset" : 0
        },
        {
            "buffer" : 0,
            "byteLength" : 50700,
            "byteOffset" : 50700
        },
        {
            "buffer" : 0,
            "byteLength" : 33800,
            "byteOffset" : 101400
        },
        {
            "buffer" : 0,
            "byteLength" : 49152,
            "byteOffset" : 135200
        },
        {
            "buffer" : 0,
            "byteLength" : 1213116,
            "byteOffset" : 184352
        },
        {
            "buffer" : 0,
            "byteLength" : 90,
            "byteOffset" : 1397468
        },
        {
            "buffer" : 0,
            "byteLength" : 1140,
            "byteOffset" : 1397560
        },
        {
            "buffer" : 0,
            "byteLength" : 1140,
            "byteOffset" : 1398700
        },
        {
            "buffer" : 0,
            "byteLength" : 760,
            "byteOffset" : 1399840
        },
        {
            "buffer" : 0,
            "byteLength" : 768,
            "byteOffset" : 1400600
        },
        {
            "buffer" : 0,
            "byteLength" : 5648,
            "byteOffset" : 1401368
        },
        {
            "buffer" : 0,
            "byteLength" : 266616,
            "byteOffset" : 1407016
        },
        {
            "buffer" : 0,
            "byteLength" : 266616,
            "byteOffset" : 1673632
        },
        {
            "buffer" : 0,
            "byteLength" : 177744,
            "byteOffset" : 1940248
        },
        {
            "buffer" : 0,
            "byteLength" : 45180,
            "byteOffset" : 2117992
        }
    ],
    "buffers" : [
        {
            "byteLength" : 2163172,
            "uri" : "data:application/octet-stream;base64,"
        }
    ]
}
