{
    "asset" : {
        "generator" : "Khronos glTF Blender I/O v0.9.36",
        "version" : "2.0"
    },
    "scene" : 0,
    "scenes" : [
        {
            "name" : "Scene",
            "nodes" : [
                0
            ]
        }
    ],
    "nodes" : [
        {
            "mesh" : 0,
            "name" : "Cylinder.004"
        }
    ],
    "materials" : [
        {
            "doubleSided" : true,
            "name" : "Material.003",
            "pbrMetallicRoughness" : {
                "baseColorTexture" : {
                    "index" : 0,
                    "texCoord" : 0
                },
                "metallicFactor" : 0,
                "roughnessFactor" : 0.5
            }
        }
    ],
    "meshes" : [
        {
            "name" : "Cylinder.000",
            "primitives" : [
                {
                    "attributes" : {
                        "POSITION" : 0,
                        "NORMAL" : 1,
                        "TEXCOORD_0" : 2
                    },
                    "indices" : 3,
                    "material" : 0
                }
            ]
        }
    ],
    "textures" : [
        {
            "source" : 0
        }
    ],
    "images" : [
        {
            "bufferView" : 4,
            "mimeType" : "image/png",
            "name" : "TowerTexture"
        }
    ],
    "accessors" : [
        {
            "bufferView" : 0,
            "componentType" : 5126,
            "count" : 6583,
            "max" : [
                3.1401782035827637,
                13.275679588317871,
                3.158686637878418
            ],
            "min" : [
                -3.1454014778137207,
                0.03665590286254883,
                -3.1268930435180664
            ],
            "type" : "VEC3"
        },
        {
            "bufferView" : 1,
            "componentType" : 5126,
            "count" : 6583,
            "type" : "VEC3"
        },
        {
            "bufferView" : 2,
            "componentType" : 5126,
            "count" : 6583,
            "type" : "VEC2"
        },
        {
            "bufferView" : 3,
            "componentType" : 5123,
            "count" : 27123,
            "type" : "SCALAR"
        }
    ],
    "bufferViews" : [
        {
            "buffer" : 0,
            "byteLength" : 78996,
            "byteOffset" : 0
        },
        {
            "buffer" : 0,
            "byteLength" : 78996,
            "byteOffset" : 78996
        },
        {
            "buffer" : 0,
            "byteLength" : 52664,
            "byteOffset" : 157992
        },
        {
            "buffer" : 0,
            "byteLength" : 54246,
            "byteOffset" : 210656
        },
        {
            "buffer" : 0,
            "byteLength" : 1236997,
            "byteOffset" : 264904
        }
    ],
    "buffers" : [
        {
            "byteLength" : 1501904,
            "uri" : "data:application/octet-stream;base64,"
        }
    ]
}
